<svg width="30" height="30" viewBox="0 0 30 30" fill="none" xmlns="http://www.w3.org/2000/svg">
<path d="M22.2936 11.4908L16.2385 2.40828C15.9632 2.13305 15.5505 1.85782 15.1376 1.85782C14.7248 1.85782 14.3119 1.99544 14.0367 2.40828L7.98165 11.4908H1.37615C0.550459 11.4908 0 12.0413 0 12.867C0 13.0046 0 13.1422 0 13.2798L3.44037 26.078C3.7156 27.1789 4.81651 28.1422 6.05505 28.1422H23.945C25.1835 28.1422 26.2844 27.3165 26.5596 26.078L30 13.2798C30 13.1422 30 13.0046 30 12.867C30 12.0413 29.4495 11.4908 28.6239 11.4908H22.2936ZM11.0092 11.4908L15.1376 5.4358L19.2661 11.4908H11.0092ZM15.1376 22.5C13.6239 22.5 12.3853 21.2615 12.3853 19.7477C12.3853 18.234 13.6239 16.9954 15.1376 16.9954C16.6514 16.9954 17.8899 18.234 17.8899 19.7477C17.8899 21.2615 16.6514 22.5 15.1376 22.5Z" fill="#212121"/>
</svg>
